{
	"asset":{
		"version":"2.0",
		"generator":"Created using the official Cinema 4D glTF Exporter 1.000x284978"
	},
	"scenes":[{
		"nodes":[0]
	}],
	"nodes":[{
		"name":"Polygon",
		"translation":[1.6158318519592286,
		0.0,
		5.121917247772217],
		"rotation":[0.0,
		0.0,
		0.0,
		-1.0],
		"scale":[1.0,
		1.0,
		1.0],
		"mesh":0
	}],
	"meshes":[{
		"name":"Polygon",
		"primitives":[{
			"attributes":{
				"POSITION":1,
				"NORMAL":2
			},
			"indices":0
		}]
	}],
	"accessors":[{
		"bufferView":0,
		"type":"SCALAR",
		"componentType":5123,
		"count":74406,
		"byteOffset":0,
		"min":[0],
		"max":[56123]
	},
	{
		"bufferView":1,
		"type":"VEC3",
		"componentType":5126,
		"count":56124,
		"byteOffset":0,
		"min":[-5.652195930480957,
		0.0,
		-9.480819702148438],
		"max":[-0.052195776253938678,
		16.899999618530275,
		-3.4808194637298586]
	},
	{
		"bufferView":1,
		"type":"VEC3",
		"componentType":5126,
		"count":56124,
		"byteOffset":12,
		"min":[-1.0,
		-1.0,
		-1.0],
		"max":[1.0,
		1.0,
		1.0]
	}],
	"bufferViews":[{
		"buffer":0,
		"byteOffset":0,
		"byteLength":148812,
		"target":34963
	},
	{
		"buffer":0,
		"byteOffset":148812,
		"byteLength":1346976,
		"target":34962,
		"byteStride":24
	}],
	"buffers":[{
		"uri":"data:application/octet-stream;base64,",
		"byteLength":1495788
	}]
}